<mxfile host="Electron" agent="Mozilla/5.0 (Windows NT 10.0; Win64; x64) AppleWebKit/537.36 (KHTML, like Gecko) draw.io/24.7.17 Chrome/128.0.6613.36 Electron/32.0.1 Safari/537.36" version="24.7.17">
  <diagram name="Сторінка-1" id="5gcw_xuiGcrVMCK8gYLB">
    <mxGraphModel dx="1004" dy="692" grid="1" gridSize="10" guides="1" tooltips="1" connect="1" arrows="1" fold="1" page="1" pageScale="1" pageWidth="827" pageHeight="1169" math="0" shadow="0">
      <root>
        <mxCell id="0" />
        <mxCell id="1" parent="0" />
        <mxCell id="u925wz_N25R0RhjSnpFi-3" value="" style="edgeStyle=orthogonalEdgeStyle;rounded=0;orthogonalLoop=1;jettySize=auto;html=1;" parent="1" source="u925wz_N25R0RhjSnpFi-1" target="u925wz_N25R0RhjSnpFi-2" edge="1">
          <mxGeometry relative="1" as="geometry" />
        </mxCell>
        <mxCell id="u925wz_N25R0RhjSnpFi-1" value="&lt;font style=&quot;font-size: 20px;&quot;&gt;start&lt;/font&gt;" style="ellipse;whiteSpace=wrap;html=1;" parent="1" vertex="1">
          <mxGeometry x="350" y="300" width="120" height="80" as="geometry" />
        </mxCell>
        <mxCell id="u925wz_N25R0RhjSnpFi-7" value="" style="edgeStyle=orthogonalEdgeStyle;rounded=0;orthogonalLoop=1;jettySize=auto;html=1;" parent="1" source="u925wz_N25R0RhjSnpFi-2" target="u925wz_N25R0RhjSnpFi-6" edge="1">
          <mxGeometry relative="1" as="geometry" />
        </mxCell>
        <mxCell id="u925wz_N25R0RhjSnpFi-2" value="&lt;div style=&quot;font-family: Consolas, &amp;quot;Courier New&amp;quot;, monospace; font-weight: normal; line-height: 19px; white-space: pre;&quot;&gt;&lt;div style=&quot;&quot;&gt;&lt;font style=&quot;font-size: 20px;&quot;&gt;double R, H, S, V&lt;/font&gt;&lt;/div&gt;&lt;/div&gt;" style="whiteSpace=wrap;html=1;" parent="1" vertex="1">
          <mxGeometry x="305" y="470" width="210" height="60" as="geometry" />
        </mxCell>
        <mxCell id="Enwgy4za4HXoTFQ7Zr0K-2" value="" style="edgeStyle=orthogonalEdgeStyle;rounded=0;orthogonalLoop=1;jettySize=auto;html=1;" edge="1" parent="1" source="u925wz_N25R0RhjSnpFi-6" target="Enwgy4za4HXoTFQ7Zr0K-1">
          <mxGeometry relative="1" as="geometry" />
        </mxCell>
        <mxCell id="u925wz_N25R0RhjSnpFi-6" value="&lt;div style=&quot;font-family: Consolas, &amp;quot;Courier New&amp;quot;, monospace; line-height: 19px; white-space: pre;&quot;&gt;&lt;div style=&quot;&quot;&gt;&lt;font style=&quot;&quot;&gt;&lt;span style=&quot;font-size: 20px;&quot;&gt;cout &amp;lt;&amp;lt; &quot;&lt;/span&gt;&lt;span style=&quot;line-height: 115%; font-family: Aptos, sans-serif;&quot;&gt;&lt;font style=&quot;font-size: 20px;&quot;&gt;О&lt;/font&gt;&lt;/span&gt;&lt;span style=&quot;line-height: 115%; font-family: Aptos, sans-serif;&quot;&gt;&lt;font style=&quot;font-size: 20px;&quot;&gt;бчислення об&#39;єму циліндра&lt;/font&gt;&lt;/span&gt;&lt;span style=&quot;font-size: 20px;&quot;&gt;&quot;&lt;/span&gt;&lt;/font&gt;&lt;/div&gt;&lt;/div&gt;" style="shape=parallelogram;perimeter=parallelogramPerimeter;whiteSpace=wrap;html=1;fixedSize=1;" parent="1" vertex="1">
          <mxGeometry x="83" y="610" width="655" height="40" as="geometry" />
        </mxCell>
        <mxCell id="Enwgy4za4HXoTFQ7Zr0K-17" value="" style="edgeStyle=orthogonalEdgeStyle;rounded=0;orthogonalLoop=1;jettySize=auto;html=1;" edge="1" parent="1" source="Enwgy4za4HXoTFQ7Zr0K-1" target="Enwgy4za4HXoTFQ7Zr0K-16">
          <mxGeometry relative="1" as="geometry" />
        </mxCell>
        <mxCell id="Enwgy4za4HXoTFQ7Zr0K-1" value="&lt;div style=&quot;font-family: Consolas, &amp;quot;Courier New&amp;quot;, monospace; line-height: 19px; white-space: pre;&quot;&gt;&lt;div style=&quot;font-size: 20px;&quot;&gt;&lt;font style=&quot;font-size: 20px;&quot;&gt;&lt;span style=&quot;font-size: 20px;&quot;&gt;cout &amp;lt;&amp;lt; &quot;&lt;/span&gt;&lt;span style=&quot;line-height: 115%;&quot;&gt;Введіть початкові дані:&lt;/span&gt;&lt;span style=&quot;font-size: 20px;&quot;&gt;&quot;&lt;/span&gt;&lt;/font&gt;&lt;/div&gt;&lt;/div&gt;" style="shape=parallelogram;perimeter=parallelogramPerimeter;whiteSpace=wrap;html=1;fixedSize=1;" vertex="1" parent="1">
          <mxGeometry x="83" y="730" width="655" height="40" as="geometry" />
        </mxCell>
        <mxCell id="Enwgy4za4HXoTFQ7Zr0K-3" value="" style="edgeStyle=orthogonalEdgeStyle;rounded=0;orthogonalLoop=1;jettySize=auto;html=1;" edge="1" parent="1" source="Enwgy4za4HXoTFQ7Zr0K-4" target="Enwgy4za4HXoTFQ7Zr0K-6">
          <mxGeometry relative="1" as="geometry" />
        </mxCell>
        <mxCell id="Enwgy4za4HXoTFQ7Zr0K-4" value="&lt;div style=&quot;font-family: Consolas, &amp;quot;Courier New&amp;quot;, monospace; line-height: 19px; white-space: pre;&quot;&gt;&lt;div style=&quot;&quot;&gt;&lt;font style=&quot;font-size: 20px;&quot;&gt;cin &amp;gt;&amp;gt; R&lt;/font&gt;&lt;/div&gt;&lt;/div&gt;" style="shape=parallelogram;perimeter=parallelogramPerimeter;whiteSpace=wrap;html=1;fixedSize=1;" vertex="1" parent="1">
          <mxGeometry x="332" y="988" width="157" height="40" as="geometry" />
        </mxCell>
        <mxCell id="Enwgy4za4HXoTFQ7Zr0K-5" value="" style="edgeStyle=orthogonalEdgeStyle;rounded=0;orthogonalLoop=1;jettySize=auto;html=1;" edge="1" parent="1" source="Enwgy4za4HXoTFQ7Zr0K-6" target="Enwgy4za4HXoTFQ7Zr0K-8">
          <mxGeometry relative="1" as="geometry" />
        </mxCell>
        <mxCell id="Enwgy4za4HXoTFQ7Zr0K-6" value="&lt;div style=&quot;font-family: Consolas, &amp;quot;Courier New&amp;quot;, monospace; line-height: 19px; white-space: pre; font-size: 20px;&quot;&gt;&lt;div style=&quot;&quot;&gt;&lt;span style=&quot;font-size: 20px;&quot;&gt;cout &amp;lt;&amp;lt; &quot;&lt;/span&gt;Висота циліндра (см) &amp;gt; &lt;span style=&quot;font-size: 20px;&quot;&gt;&quot;&lt;/span&gt;&lt;br&gt;&lt;/div&gt;&lt;/div&gt;" style="shape=parallelogram;perimeter=parallelogramPerimeter;whiteSpace=wrap;html=1;fixedSize=1;" vertex="1" parent="1">
          <mxGeometry x="176" y="1108" width="469" height="40" as="geometry" />
        </mxCell>
        <mxCell id="Enwgy4za4HXoTFQ7Zr0K-7" value="" style="edgeStyle=orthogonalEdgeStyle;rounded=0;orthogonalLoop=1;jettySize=auto;html=1;" edge="1" parent="1" source="Enwgy4za4HXoTFQ7Zr0K-8" target="Enwgy4za4HXoTFQ7Zr0K-10">
          <mxGeometry relative="1" as="geometry" />
        </mxCell>
        <mxCell id="Enwgy4za4HXoTFQ7Zr0K-8" value="&lt;div style=&quot;font-family: Consolas, &amp;quot;Courier New&amp;quot;, monospace; line-height: 19px; white-space: pre;&quot;&gt;&lt;div style=&quot;&quot;&gt;&lt;span style=&quot;font-size: 20px;&quot;&gt;cin &amp;gt;&amp;gt; H&lt;/span&gt;&lt;br&gt;&lt;/div&gt;&lt;/div&gt;" style="shape=parallelogram;perimeter=parallelogramPerimeter;whiteSpace=wrap;html=1;fixedSize=1;" vertex="1" parent="1">
          <mxGeometry x="323" y="1228" width="174" height="40" as="geometry" />
        </mxCell>
        <mxCell id="Enwgy4za4HXoTFQ7Zr0K-9" value="" style="edgeStyle=orthogonalEdgeStyle;rounded=0;orthogonalLoop=1;jettySize=auto;html=1;" edge="1" parent="1" source="Enwgy4za4HXoTFQ7Zr0K-10" target="Enwgy4za4HXoTFQ7Zr0K-12">
          <mxGeometry relative="1" as="geometry" />
        </mxCell>
        <mxCell id="Enwgy4za4HXoTFQ7Zr0K-10" value="&lt;span style=&quot;font-family: Consolas, &amp;quot;Courier New&amp;quot;, monospace; font-size: 20px; white-space: pre;&quot;&gt; S=M_PI*R*R &lt;/span&gt;" style="whiteSpace=wrap;html=1;" vertex="1" parent="1">
          <mxGeometry x="340" y="1338" width="140" height="50" as="geometry" />
        </mxCell>
        <mxCell id="Enwgy4za4HXoTFQ7Zr0K-11" value="" style="edgeStyle=orthogonalEdgeStyle;rounded=0;orthogonalLoop=1;jettySize=auto;html=1;" edge="1" parent="1" source="Enwgy4za4HXoTFQ7Zr0K-12" target="Enwgy4za4HXoTFQ7Zr0K-14">
          <mxGeometry relative="1" as="geometry" />
        </mxCell>
        <mxCell id="Enwgy4za4HXoTFQ7Zr0K-12" value="&lt;span style=&quot;font-family: Consolas, &amp;quot;Courier New&amp;quot;, monospace; font-size: 20px; white-space: pre;&quot;&gt;V=S*H&lt;/span&gt;" style="whiteSpace=wrap;html=1;" vertex="1" parent="1">
          <mxGeometry x="340" y="1468" width="140" height="50" as="geometry" />
        </mxCell>
        <mxCell id="Enwgy4za4HXoTFQ7Zr0K-13" value="" style="edgeStyle=orthogonalEdgeStyle;rounded=0;orthogonalLoop=1;jettySize=auto;html=1;" edge="1" parent="1" source="Enwgy4za4HXoTFQ7Zr0K-14" target="Enwgy4za4HXoTFQ7Zr0K-15">
          <mxGeometry relative="1" as="geometry" />
        </mxCell>
        <mxCell id="Enwgy4za4HXoTFQ7Zr0K-14" value="&lt;span style=&quot;font-family: Consolas, &amp;quot;Courier New&amp;quot;, monospace; font-size: 20px; white-space: pre;&quot;&gt;cout &amp;lt;&amp;lt; &quot;&lt;/span&gt;&lt;span style=&quot;font-size:12.0pt;line-height:115%;&lt;br/&gt;font-family:&amp;quot;Aptos&amp;quot;,sans-serif;mso-ascii-theme-font:minor-latin;mso-fareast-font-family:&lt;br/&gt;Aptos;mso-fareast-theme-font:minor-latin;mso-hansi-theme-font:minor-latin;&lt;br/&gt;mso-bidi-font-family:&amp;quot;Times New Roman&amp;quot;;mso-bidi-theme-font:minor-bidi;&lt;br/&gt;mso-ansi-language:UK;mso-fareast-language:EN-US;mso-bidi-language:AR-SA&quot;&gt;Об&#39;єм&lt;/span&gt;&lt;span style=&quot;font-family: Consolas, &amp;quot;Courier New&amp;quot;, monospace; font-size: 20px; white-space: pre;&quot;&gt; &lt;/span&gt;&lt;span style=&quot;font-family: Consolas, &amp;quot;Courier New&amp;quot;, monospace; font-size: 20px; white-space: pre;&quot;&gt;&quot; &amp;lt;&amp;lt; V &amp;lt;&amp;lt; &quot; см.куб&quot; &lt;/span&gt;" style="shape=parallelogram;perimeter=parallelogramPerimeter;whiteSpace=wrap;html=1;fixedSize=1;" vertex="1" parent="1">
          <mxGeometry x="144" y="1593" width="532" height="55" as="geometry" />
        </mxCell>
        <mxCell id="Enwgy4za4HXoTFQ7Zr0K-15" value="&lt;font style=&quot;font-size: 20px;&quot;&gt;end&lt;/font&gt;" style="ellipse;whiteSpace=wrap;html=1;" vertex="1" parent="1">
          <mxGeometry x="370" y="1715.5" width="80" height="80" as="geometry" />
        </mxCell>
        <mxCell id="Enwgy4za4HXoTFQ7Zr0K-18" value="" style="edgeStyle=orthogonalEdgeStyle;rounded=0;orthogonalLoop=1;jettySize=auto;html=1;" edge="1" parent="1" source="Enwgy4za4HXoTFQ7Zr0K-16" target="Enwgy4za4HXoTFQ7Zr0K-4">
          <mxGeometry relative="1" as="geometry" />
        </mxCell>
        <mxCell id="Enwgy4za4HXoTFQ7Zr0K-16" value="&lt;div style=&quot;font-family: Consolas, &amp;quot;Courier New&amp;quot;, monospace; line-height: 19px; white-space: pre;&quot;&gt;&lt;div style=&quot;font-size: 20px;&quot;&gt;&lt;font style=&quot;font-size: 20px;&quot;&gt;&lt;span style=&quot;font-size: 20px;&quot;&gt;cout &amp;lt;&amp;lt; &quot;&lt;/span&gt;&lt;span style=&quot;line-height: 115%;&quot;&gt;Радіус підстави (см) &amp;gt; &lt;/span&gt;&lt;span style=&quot;font-size: 20px;&quot;&gt;&quot;&lt;/span&gt;&lt;/font&gt;&lt;/div&gt;&lt;/div&gt;" style="shape=parallelogram;perimeter=parallelogramPerimeter;whiteSpace=wrap;html=1;fixedSize=1;" vertex="1" parent="1">
          <mxGeometry x="83" y="850" width="655" height="40" as="geometry" />
        </mxCell>
      </root>
    </mxGraphModel>
  </diagram>
</mxfile>
